<svg id="Шар_3" data-name="Шар 3" xmlns="http://www.w3.org/2000/svg" width="24" height="24" viewBox="0 0 24 24"><defs><style>.cls-1{fill:#fcd791;}.cls-2{fill:#db8e72;}.cls-3{fill:#f19a7c;}.cls-4{fill:#6c413a;}</style></defs><rect class="cls-1" x="4.62" y="14.59" width="14.76" height="8.79" rx="3.62"/><rect class="cls-2" x="10.07" y="10.38" width="3.87" height="6.33" rx="1.59"/><ellipse class="cls-3" cx="12" cy="7.56" rx="4.57" ry="6.68"/><path class="cls-4" d="M14.29,6A6.08,6.08,0,0,1,9,6.69s-.59,2.2-1.35,2.5c0,0-1.11-3.56-.4-5.67S10.62,0,12.1.89c0,0,2.55-.18,2.9,1.23,0,0,3.08,1.49,1.54,7.07A6.61,6.61,0,0,1,14.29,6Z"/><ellipse class="cls-3" cx="16.44" cy="9.5" rx="1.23" ry="0.7" transform="translate(3.89 23.74) rotate(-78.65)"/><ellipse class="cls-3" cx="7.65" cy="9.5" rx="0.7" ry="1.23" transform="translate(-1.72 1.69) rotate(-11.35)"/></svg>